<svg width="33" height="23" viewBox="0 0 33 23" fill="none" xmlns="http://www.w3.org/2000/svg">
<path d="M16.5 3C22.185 3 27.255 6.195 29.73 11.25C27.255 16.305 22.185 19.5 16.5 19.5C10.815 19.5 5.745 16.305 3.27 11.25C5.745 6.195 10.815 3 16.5 3ZM16.5 0C9 0 2.595 4.665 0 11.25C2.595 17.835 9 22.5 16.5 22.5C24 22.5 30.405 17.835 33 11.25C30.405 4.665 24 0 16.5 0ZM16.5 7.5C18.57 7.5 20.25 9.18 20.25 11.25C20.25 13.32 18.57 15 16.5 15C14.43 15 12.75 13.32 12.75 11.25C12.75 9.18 14.43 7.5 16.5 7.5ZM16.5 4.5C12.78 4.5 9.75 7.53 9.75 11.25C9.75 14.97 12.78 18 16.5 18C20.22 18 23.25 14.97 23.25 11.25C23.25 7.53 20.22 4.5 16.5 4.5Z" fill="#999999"/>
</svg>
