<svg width="20" height="19" viewBox="0 0 20 19" fill="none" xmlns="http://www.w3.org/2000/svg">
<path d="M9.38796 1.09648C9.58011 0.634506 10.2345 0.634506 10.4267 1.09648L12.5527 6.20794C12.6337 6.4027 12.8168 6.53577 13.0271 6.55262L18.5453 6.99502C19.0441 7.035 19.2463 7.65741 18.8663 7.98291L14.662 11.5844C14.5018 11.7216 14.4318 11.9369 14.4808 12.1421L15.7653 17.5269C15.8814 18.0136 15.3519 18.3983 14.9249 18.1375L10.2005 15.2519C10.0205 15.1419 9.79413 15.1419 9.61412 15.2519L4.88973 18.1375C4.46274 18.3983 3.93329 18.0136 4.04938 17.5269L5.33387 12.1421C5.38281 11.9369 5.31285 11.7216 5.15266 11.5844L0.948335 7.98292C0.568345 7.65741 0.770578 7.035 1.26932 6.99502L6.78757 6.55262C6.99783 6.53577 7.18098 6.4027 7.26199 6.20794L9.38796 1.09648Z" stroke="#999999" stroke-width="1.5" stroke-linecap="round" stroke-linejoin="round"/>
</svg>
